<svg xmlns="http://www.w3.org/2000/svg" width="16" height="16" fill="none" viewBox="0 0 24 24" name="stat-armor" class="champion-stat-icon text-orange-600"><path fill="#F06F00" fill-rule="evenodd" d="M4 3a1 1 0 0 0-1 1v9.444c0 3.373 2.39 5.524 4.492 6.764a17 17 0 0 0 2.924 1.35 17 17 0 0 0 1.32.407l.023.006.007.001.004.001c.15.036.309.036.46 0L12 21l.231.973h.003l.007-.002.022-.006.078-.02a17 17 0 0 0 1.243-.386c.79-.28 1.853-.718 2.924-1.35C18.61 18.967 21 16.816 21 13.443V4a1 1 0 0 0-1-1zm8 18-.23.973zm.068-1.053-.068.019-.068-.02a15 15 0 0 1-.848-.272c-.71-.252-1.647-.64-2.576-1.188C6.61 17.366 5 15.74 5 13.444V5h14v8.444c0 2.295-1.61 3.921-3.508 5.042-.929.548-1.866.936-2.576 1.188-.353.125-.646.215-.848.273M12 17.389s5-1.222 5-4.889V7H7v5.5c0 3.667 5 4.889 5 4.889" clip-rule="evenodd"></path></svg>