<svg xmlns="http://www.w3.org/2000/svg" width="16" height="16" fill="none" viewBox="0 0 24 24" name="stat-attack_range" class="champion-stat-icon text-main-500"><path fill="#5383E8" fill-rule="evenodd" d="M17.906 20.5c.01.275.232.5.508.5H20.5a.49.49 0 0 0 .493-.501c-.26-9.543-7.949-17.231-17.492-17.492A.49.49 0 0 0 3 3.5v2.086c0 .276.225.499.5.508 7.84.259 14.147 6.566 14.406 14.405Zm-5.536.5a.523.523 0 0 1-.514-.5A8.87 8.87 0 0 0 3.5 12.144a.523.523 0 0 1-.5-.514V9.5c0-.276.225-.501.5-.49 6.23.256 11.234 5.26 11.49 11.49a.485.485 0 0 1-.49.5zm-4.162-2.982a6 6 0 0 1 .771 2.482.47.47 0 0 1-.479.5h-5a.5.5 0 0 1-.5-.5v-5a.47.47 0 0 1 .5-.48 6 6 0 0 1 2.482.772l.018.01A6.03 6.03 0 0 1 8.197 18l.01.018Z" clip-rule="evenodd"></path></svg>