<svg width="24" height="24" viewBox="0 0 24 24" fill="none" xmlns="http://www.w3.org/2000/svg">
    <path d="M20.27 12.5425C20.27 10.621 21.0245 1.55782 12.0385 1.50289C11.9865 1.50096 11.973 1.5 11.9596 1.5C2.97356 1.55782 3.72897 10.621 3.72897 12.5425C3.72897 14.4699 4.04941 16.3567 3.3681 16.879C2.68679 17.4013 2.92737 18.1635 4.28999 19.8499C5.65261 21.5363 8.09975 22.5 8.09975 22.5V13.9051C7.6542 13.7577 7.21828 13.4937 6.84683 13.1121C5.82005 12.053 5.68052 10.5237 6.53504 9.69301C7.38572 8.86233 8.85035 9.10999 9.93775 10.1045C10.3698 10.4996 10.6701 11.1019 10.8058 11.5683C10.9934 12.158 11.0165 12.7883 11.0165 13.5563C11.0165 14.8515 11.0309 16.6776 11.0309 16.6776C11.0309 17.8532 12.9671 17.8532 12.9671 16.6776C12.9671 16.6776 12.9825 14.8515 12.9825 13.5563C12.9825 12.7883 13.0046 12.158 13.1932 11.5683C13.328 11.1019 13.6292 10.4996 14.0612 10.1045C15.1486 9.10999 16.6123 8.86233 17.4639 9.69301C18.3185 10.5237 18.178 12.053 17.1521 13.1121C16.7807 13.4937 16.3448 13.7577 15.8992 13.9051V22.5C15.8992 22.5 18.3464 21.5363 19.709 19.8499C21.0716 18.1635 21.3122 17.4013 20.6309 16.879C19.9496 16.3567 20.27 14.4699 20.27 12.5425Z" fill="#907659"/>
</svg>
