<svg xmlns="http://www.w3.org/2000/svg" width="16" height="16" fill="none" viewBox="0 0 24 24" class="champion-stat-icon text-purple-500"><path fill="#7D59EA" fill-rule="evenodd" d="m5.759 16.241-2.647-2.646a.5.5 0 0 1 0-.708l.793-.792a.5.5 0 0 1 .707 0l1.395 1.394 6.696-10.044A1 1 0 0 1 13.535 3H20a1 1 0 0 1 1 1v6.465a1 1 0 0 1-.445.832L10.51 17.993l1.394 1.395a.5.5 0 0 1 0 .707l-.793.793a.5.5 0 0 1-.707 0L7.76 18.24l-2.613 2.613a.5.5 0 0 1-.353.146H3.5a.5.5 0 0 1-.5-.5v-1.293a.5.5 0 0 1 .146-.353L5.76 16.24Z" clip-rule="evenodd"></path></svg>