<svg width="20" height="20" viewBox="0 0 20 20" fill="none" xmlns="http://www.w3.org/2000/svg">
<path fill-rule="evenodd" clip-rule="evenodd" d="M13.7984 13.0418C11.9041 13.6351 11.1269 11.757 11.1269 11.757L14.7699 9.48379C14.7699 9.48379 15.9452 12.3697 13.7984 13.0418ZM8.83243 15.7551C8.83243 15.7551 8.99719 13.2775 10.0763 13.2775C11.1127 13.2775 11.2647 15.7551 11.2647 15.7551H8.83243ZM6.20156 13.0418C4.05464 12.3697 5.22989 9.48379 5.22989 9.48379L8.87314 11.757C8.87314 11.757 8.09608 13.6351 6.20156 13.0418ZM17.5 8.68884C17.5 4.58055 14.1421 1.25 9.99991 1.25C5.85789 1.25 2.5 4.58055 2.5 8.68884C2.5 9.97297 2.82797 11.1807 3.40542 12.2349C2.88974 12.7427 2.56987 13.4462 2.56987 14.2238C2.56987 15.7721 3.83519 17.0267 5.39586 17.0267C5.63171 17.0267 5.85944 16.9949 6.07838 16.9409L6.24038 18.75H7.7493V17.564C7.7493 17.4273 7.85799 17.3167 7.99205 17.3167C8.12627 17.3167 8.23496 17.4273 8.23496 17.564V18.75H9.757V17.564C9.757 17.4273 9.86586 17.3167 9.99991 17.3167C10.1343 17.3167 10.243 17.4273 10.243 17.564V18.75H11.7649V17.564C11.7649 17.4273 11.8737 17.3167 12.0078 17.3167C12.142 17.3167 12.2507 17.4273 12.2507 17.564V18.75H13.7596L13.9339 16.8029C14.1407 16.8507 14.3555 16.8784 14.5771 16.8784C16.1377 16.8784 17.403 15.6236 17.403 14.0758C17.403 13.333 17.1096 12.6597 16.6343 12.1584C17.1863 11.1221 17.5 9.94208 17.5 8.68884Z" fill="#00BBA3"/>
</svg>
