<svg width="24" height="24" viewBox="0 0 24 24" fill="none" xmlns="http://www.w3.org/2000/svg">
<path d="M18.7838 15.6081C18.7838 19.1375 15.9222 22 12.3919 22C9.11312 22 6.41063 19.5306 6.04281 16.3509C6.01469 16.1078 6 15.8591 6 15.6081C6 13.7981 6.84125 12.6297 7.55594 11.4284C8.295 10.1881 9.25437 9.03156 10.4691 7.57906C12.8597 4.72062 11.0831 2 11.0831 2C11.0831 2 13.1191 3.83719 14.3641 7.11125C14.5894 7.70375 14.7209 8.28437 14.7866 8.83875C14.8209 9.135 14.8366 9.4225 14.8372 9.70094C14.8403 11.7456 14.0287 13.2478 14.0037 13.2944C15.6384 12.5997 16.0522 11.3612 16.0984 10.4C17.7237 11.5584 18.7838 13.4597 18.7838 15.6081Z" fill="#E84057"/>
<path d="M15.2534 18.4912C15.2534 20.0712 13.9725 21.3525 12.3922 21.3525C10.9247 21.3525 9.715 20.2472 9.55031 18.8237C9.53781 18.715 9.53125 18.6034 9.53125 18.4912C9.53125 17.6809 9.90781 17.1581 10.2278 16.6203C10.5584 16.0653 10.9881 15.5475 11.5319 14.8972C12.6019 13.6178 11.8069 12.4 11.8069 12.4C11.8069 12.4 12.7181 13.2225 13.2756 14.6878C13.3766 14.9531 13.4353 15.2128 13.4647 15.4609C13.48 15.5934 13.4869 15.7222 13.4875 15.8469C13.4888 16.7622 13.1256 17.4344 13.1144 17.4553C13.8459 17.1444 14.0313 16.59 14.0519 16.1597C14.7788 16.6784 15.2534 17.5294 15.2534 18.4912Z" fill="#FFD424"/>
</svg>
