<svg width="16" height="16" viewBox="0 0 16 16" fill="none" xmlns="http://www.w3.org/2000/svg">
<circle cx="7.99967" cy="7.99998" r="6.66667" fill="#EB9C00"/>
<path d="M8.2012 11.8525C10.2978 11.8525 12.0379 10.2695 11.5977 7.58593H8.27458V9.10595H9.80508C9.56397 9.90265 8.935 10.1647 8.26409 10.1647C7.09001 10.1647 6.23041 9.34705 6.23041 8.02621C6.23041 6.70536 7.14242 5.95059 8.27458 5.95059C9.05031 5.95059 9.61639 6.26508 10.0043 6.84164L11.3356 5.92963C10.5703 4.5983 9.31238 4.19995 8.24313 4.19995C6.14655 4.19995 4.33301 5.68852 4.33301 8.02621C4.33301 10.3639 6.1151 11.8525 8.2012 11.8525Z" fill="white"/>
</svg>
