<svg width="12" height="10" viewBox="0 0 12 10" fill="none" xmlns="http://www.w3.org/2000/svg">
<path d="M0.0843091 8.58537L4.50585 3.98049L5.77986 5.30732L1.35831 9.91219C1.2459 10.0293 1.05855 10.0293 0.9274 9.91219L0.0843091 9.03415C-0.028103 8.89756 -0.028103 8.70244 0.0843091 8.58537ZM9.84543 3.12195H12V3.74634C12 6.16585 10.1077 8.11707 7.80328 8.11707H7.20375V5.89268L4.37471 2.96585C4.13115 2.7122 4.13115 2.32195 4.37471 2.06829L6.1733 0.195122C6.30445 0.0780488 6.45433 0 6.60422 0C6.7541 0 6.90398 0.0780488 7.03513 0.195122L7.57845 0.780488L8.23419 0.097561C8.3466 -0.0195122 8.53396 -0.0195122 8.66511 0.097561L9.5082 0.97561C9.62061 1.1122 9.62061 1.30732 9.5082 1.42439L8.85246 2.10732L9.84543 3.12195ZM8.40281 6.80976C9.5644 6.57561 10.5012 5.6 10.726 4.39024H10.0141C9.71429 5.15122 9.13349 5.7561 8.40281 6.06829V6.80976Z" fill="#666A7A"/>
</svg>
