<svg width="12" height="12" viewBox="0 0 12 12" fill="none" xmlns="http://www.w3.org/2000/svg">
<path d="M2.59096 5.32916L6.67084 9.40904C6.81152 9.57318 6.81152 9.80765 6.67084 9.94834L6.22533 10.3938C6.10809 10.5111 5.89707 10.5345 5.75638 10.4407L3.88057 9.17457L2.61441 10.4407L2.96612 11.1207C2.98957 11.1676 3.01301 11.2145 3.01301 11.2614C3.01301 11.3552 2.96612 11.449 2.89578 11.4959L2.49717 11.8945C2.37993 12.0352 2.1689 12.0352 2.05166 11.8945L0.105514 9.94834C-0.0351714 9.8311 -0.0351714 9.62007 0.105514 9.50283L0.504123 9.10422C0.551018 9.03388 0.644808 9.01043 0.738599 9.01043C0.785494 9.01043 0.832389 9.01043 0.879284 9.03388L1.55926 9.3856L2.82543 8.11943L1.55926 6.24362C1.51237 6.19672 1.51237 6.10293 1.51237 6.03259C1.51237 5.9388 1.53582 5.84501 1.60616 5.77467L2.05166 5.32916C2.19235 5.18848 2.42682 5.18848 2.59096 5.32916ZM11.5714 0.00656291C11.8293 -0.0403323 12.0403 0.170696 11.9934 0.428619L11.6417 2.60924L6.27223 7.97874L4.02126 5.72777L9.39076 0.358277L11.5714 0.00656291Z" fill="#666A7A"/>
</svg>
