<svg width="20" height="20" viewBox="0 0 20 20" fill="none" xmlns="http://www.w3.org/2000/svg">
<path d="M9.16699 2.5L11.3321 3.75V6.25L9.16699 7.5L7.00193 6.25V3.75L9.16699 2.5Z" fill="#515163"/>
<path d="M15 2.5L17.1651 3.75V6.25L15 7.5L12.8349 6.25V3.75L15 2.5Z" fill="#515163"/>
<path d="M3.33301 2.5L5.49807 3.75V6.25L3.33301 7.5L1.16794 6.25V3.75L3.33301 2.5Z" fill="#907659"/>
<path d="M11.667 7.5L13.8321 8.75V11.25L11.667 12.5L9.50193 11.25V8.75L11.667 7.5Z" fill="#515163"/>
<path d="M17.5 7.5L19.6651 8.75V11.25L17.5 12.5L15.3349 11.25V8.75L17.5 7.5Z" fill="#515163"/>
<path d="M5.83301 7.5L7.99807 8.75V11.25L5.83301 12.5L3.66794 11.25V8.75L5.83301 7.5Z" fill="#515163"/>
<path d="M9.16699 12.5L11.3321 13.75V16.25L9.16699 17.5L7.00193 16.25V13.75L9.16699 12.5Z" fill="#515163"/>
<path d="M15 12.5L17.1651 13.75V16.25L15 17.5L12.8349 16.25V13.75L15 12.5Z" fill="#515163"/>
<path d="M3.33301 12.5L5.49807 13.75V16.25L3.33301 17.5L1.16794 16.25V13.75L3.33301 12.5Z" fill="#515163"/>
</svg>
