<svg width="24" height="24" viewBox="0 0 24 24" fill="none" xmlns="http://www.w3.org/2000/svg">
<path fill-rule="evenodd" clip-rule="evenodd" d="M12.5711 4H16.4669L20.4924 16.4977H19.1716L18.7857 17.3163H17.7877L18.4954 15.5826H19.2365L15.7907 4.98182H12.0077H11.9914H8.20841L4.76258 15.5826H5.50278L6.21142 17.3163H5.21337L4.8275 16.4977H3.50669L7.53133 4H11.4279L11.9995 4.67708L12.5711 4ZM9.88986 17.9708L12.0798 14.9929L13.9154 17.4146H12.7884L12.1122 16.5301L10.4705 18.8869H6.64688L7.13103 19.8687H16.9474L17.3657 18.821H12.1122L11.5542 18.3639L12.1122 17.5561L12.435 17.9492H19.2176L19.6467 17.0323H20.5916L21 18.0141H20.1624L19.8406 18.821H17.6443L17.1196 20.1301H6.97235L6.35838 18.8869H4.32081L3.86912 17.9708H3L3.33809 17.1116L4.51285 17.1198L4.83561 17.9708H9.88986ZM15.4282 5.67784L15.4562 5.7698L18.1889 14.6603L17.1034 17.2829H14.5934L11.9608 13.9751L9.47243 17.2613H6.76499L5.81022 14.7684L8.67002 5.65079L15.4282 5.67784Z" fill="#907659"/>
</svg>
